<mxfile host="app.diagrams.net" modified="2023-11-22T15:29:18.481Z" agent="Mozilla/5.0 (Macintosh; Intel Mac OS X 10.15; rv:109.0) Gecko/20100101 Firefox/119.0" etag="yVsJytiG2Pq9dtK02m61" version="22.1.3" type="github">
  <diagram name="Page-1" id="RZWibH-738hVHqYzk8vU">
    <mxGraphModel dx="2225" dy="2573" grid="1" gridSize="10" guides="1" tooltips="1" connect="1" arrows="1" fold="1" page="1" pageScale="1" pageWidth="850" pageHeight="1100" math="0" shadow="0">
      <root>
        <mxCell id="0" />
        <mxCell id="1" parent="0" />
        <mxCell id="k3TqVHNHk5mqW3imNTK8-18" style="rounded=0;orthogonalLoop=1;jettySize=auto;html=1;entryX=0;entryY=0.5;entryDx=0;entryDy=0;" parent="1" target="k3TqVHNHk5mqW3imNTK8-6" edge="1">
          <mxGeometry relative="1" as="geometry">
            <mxPoint x="40" y="260" as="sourcePoint" />
          </mxGeometry>
        </mxCell>
        <mxCell id="k3TqVHNHk5mqW3imNTK8-24" style="rounded=0;orthogonalLoop=1;jettySize=auto;html=1;exitX=1;exitY=0.3333333333333333;exitDx=0;exitDy=0;exitPerimeter=0;entryX=0;entryY=0.5;entryDx=0;entryDy=0;" parent="1" source="k3TqVHNHk5mqW3imNTK8-1" target="k3TqVHNHk5mqW3imNTK8-16" edge="1">
          <mxGeometry relative="1" as="geometry" />
        </mxCell>
        <mxCell id="k3TqVHNHk5mqW3imNTK8-26" style="rounded=0;orthogonalLoop=1;jettySize=auto;html=1;entryX=0;entryY=0.5;entryDx=0;entryDy=0;" parent="1" target="k3TqVHNHk5mqW3imNTK8-25" edge="1">
          <mxGeometry relative="1" as="geometry">
            <mxPoint x="90" y="260" as="sourcePoint" />
          </mxGeometry>
        </mxCell>
        <mxCell id="k3TqVHNHk5mqW3imNTK8-30" style="rounded=0;orthogonalLoop=1;jettySize=auto;html=1;exitX=1;exitY=0.3333333333333333;exitDx=0;exitDy=0;exitPerimeter=0;entryX=0;entryY=0.5;entryDx=0;entryDy=0;" parent="1" source="k3TqVHNHk5mqW3imNTK8-1" target="k3TqVHNHk5mqW3imNTK8-29" edge="1">
          <mxGeometry relative="1" as="geometry" />
        </mxCell>
        <mxCell id="k3TqVHNHk5mqW3imNTK8-35" style="rounded=0;orthogonalLoop=1;jettySize=auto;html=1;exitX=1;exitY=0.3333333333333333;exitDx=0;exitDy=0;exitPerimeter=0;entryX=0;entryY=0.5;entryDx=0;entryDy=0;" parent="1" source="k3TqVHNHk5mqW3imNTK8-1" target="k3TqVHNHk5mqW3imNTK8-33" edge="1">
          <mxGeometry relative="1" as="geometry" />
        </mxCell>
        <mxCell id="k3TqVHNHk5mqW3imNTK8-53" style="rounded=0;orthogonalLoop=1;jettySize=auto;html=1;exitX=1;exitY=0.3333333333333333;exitDx=0;exitDy=0;exitPerimeter=0;entryX=0;entryY=0.5;entryDx=0;entryDy=0;" parent="1" source="k3TqVHNHk5mqW3imNTK8-1" target="k3TqVHNHk5mqW3imNTK8-52" edge="1">
          <mxGeometry relative="1" as="geometry" />
        </mxCell>
        <mxCell id="k3TqVHNHk5mqW3imNTK8-57" style="rounded=0;orthogonalLoop=1;jettySize=auto;html=1;exitX=1;exitY=0.3333333333333333;exitDx=0;exitDy=0;exitPerimeter=0;entryX=0;entryY=0.5;entryDx=0;entryDy=0;" parent="1" source="k3TqVHNHk5mqW3imNTK8-1" target="k3TqVHNHk5mqW3imNTK8-56" edge="1">
          <mxGeometry relative="1" as="geometry" />
        </mxCell>
        <mxCell id="k3TqVHNHk5mqW3imNTK8-65" style="rounded=0;orthogonalLoop=1;jettySize=auto;html=1;exitX=1;exitY=0.3333333333333333;exitDx=0;exitDy=0;exitPerimeter=0;entryX=0;entryY=0.5;entryDx=0;entryDy=0;" parent="1" source="k3TqVHNHk5mqW3imNTK8-1" target="k3TqVHNHk5mqW3imNTK8-63" edge="1">
          <mxGeometry relative="1" as="geometry" />
        </mxCell>
        <mxCell id="k3TqVHNHk5mqW3imNTK8-72" style="rounded=0;orthogonalLoop=1;jettySize=auto;html=1;exitX=1;exitY=0.3333333333333333;exitDx=0;exitDy=0;exitPerimeter=0;entryX=0;entryY=0.5;entryDx=0;entryDy=0;" parent="1" source="k3TqVHNHk5mqW3imNTK8-1" target="k3TqVHNHk5mqW3imNTK8-69" edge="1">
          <mxGeometry relative="1" as="geometry" />
        </mxCell>
        <mxCell id="k3TqVHNHk5mqW3imNTK8-74" style="rounded=0;orthogonalLoop=1;jettySize=auto;html=1;exitX=1;exitY=0.3333333333333333;exitDx=0;exitDy=0;exitPerimeter=0;entryX=0;entryY=0.5;entryDx=0;entryDy=0;" parent="1" source="k3TqVHNHk5mqW3imNTK8-1" target="k3TqVHNHk5mqW3imNTK8-73" edge="1">
          <mxGeometry relative="1" as="geometry" />
        </mxCell>
        <mxCell id="k3TqVHNHk5mqW3imNTK8-79" style="rounded=0;orthogonalLoop=1;jettySize=auto;html=1;exitX=1;exitY=0.3333333333333333;exitDx=0;exitDy=0;exitPerimeter=0;entryX=0;entryY=0.5;entryDx=0;entryDy=0;" parent="1" source="k3TqVHNHk5mqW3imNTK8-1" target="k3TqVHNHk5mqW3imNTK8-78" edge="1">
          <mxGeometry relative="1" as="geometry" />
        </mxCell>
        <mxCell id="k3TqVHNHk5mqW3imNTK8-1" value="Member" style="shape=umlActor;verticalLabelPosition=bottom;verticalAlign=top;html=1;outlineConnect=0;" parent="1" vertex="1">
          <mxGeometry x="10" y="240" width="30" height="60" as="geometry" />
        </mxCell>
        <mxCell id="k3TqVHNHk5mqW3imNTK8-10" value="" style="edgeStyle=orthogonalEdgeStyle;rounded=0;orthogonalLoop=1;jettySize=auto;html=1;dashed=1;" parent="1" source="k3TqVHNHk5mqW3imNTK8-6" target="k3TqVHNHk5mqW3imNTK8-9" edge="1">
          <mxGeometry relative="1" as="geometry" />
        </mxCell>
        <mxCell id="k3TqVHNHk5mqW3imNTK8-11" value="&lt;div&gt;include&lt;/div&gt;" style="edgeLabel;html=1;align=center;verticalAlign=middle;resizable=0;points=[];" parent="k3TqVHNHk5mqW3imNTK8-10" vertex="1" connectable="0">
          <mxGeometry x="-0.1292" relative="1" as="geometry">
            <mxPoint as="offset" />
          </mxGeometry>
        </mxCell>
        <mxCell id="k3TqVHNHk5mqW3imNTK8-6" value="Login" style="ellipse;whiteSpace=wrap;html=1;" parent="1" vertex="1">
          <mxGeometry x="780" y="630" width="120" height="60" as="geometry" />
        </mxCell>
        <mxCell id="k3TqVHNHk5mqW3imNTK8-13" value="" style="edgeStyle=orthogonalEdgeStyle;rounded=0;orthogonalLoop=1;jettySize=auto;html=1;dashed=1;" parent="1" source="k3TqVHNHk5mqW3imNTK8-9" target="k3TqVHNHk5mqW3imNTK8-12" edge="1">
          <mxGeometry relative="1" as="geometry" />
        </mxCell>
        <mxCell id="k3TqVHNHk5mqW3imNTK8-14" value="include" style="edgeLabel;html=1;align=center;verticalAlign=middle;resizable=0;points=[];" parent="k3TqVHNHk5mqW3imNTK8-13" vertex="1" connectable="0">
          <mxGeometry x="-0.2542" y="2" relative="1" as="geometry">
            <mxPoint as="offset" />
          </mxGeometry>
        </mxCell>
        <mxCell id="k3TqVHNHk5mqW3imNTK8-9" value="Registrasi" style="ellipse;whiteSpace=wrap;html=1;" parent="1" vertex="1">
          <mxGeometry x="780" y="730" width="120" height="60" as="geometry" />
        </mxCell>
        <mxCell id="k3TqVHNHk5mqW3imNTK8-12" value="Validasi" style="ellipse;whiteSpace=wrap;html=1;" parent="1" vertex="1">
          <mxGeometry x="780" y="830" width="120" height="60" as="geometry" />
        </mxCell>
        <mxCell id="k3TqVHNHk5mqW3imNTK8-41" style="rounded=0;orthogonalLoop=1;jettySize=auto;html=1;exitX=1;exitY=1;exitDx=0;exitDy=0;entryX=0.5;entryY=0;entryDx=0;entryDy=0;dashed=1;" parent="1" source="k3TqVHNHk5mqW3imNTK8-16" target="k3TqVHNHk5mqW3imNTK8-6" edge="1">
          <mxGeometry relative="1" as="geometry" />
        </mxCell>
        <mxCell id="k3TqVHNHk5mqW3imNTK8-46" value="&amp;lt;&amp;lt;include&amp;gt;&amp;gt;" style="edgeLabel;html=1;align=center;verticalAlign=middle;resizable=0;points=[];" parent="k3TqVHNHk5mqW3imNTK8-41" vertex="1" connectable="0">
          <mxGeometry x="-0.7326" y="4" relative="1" as="geometry">
            <mxPoint x="10" y="-17" as="offset" />
          </mxGeometry>
        </mxCell>
        <mxCell id="hbDmPjfFOQGGygIN4OG3-49" style="rounded=0;orthogonalLoop=1;jettySize=auto;html=1;exitX=1;exitY=0.5;exitDx=0;exitDy=0;entryX=0;entryY=0.5;entryDx=0;entryDy=0;dashed=1;endArrow=none;endFill=0;startArrow=classic;startFill=1;" edge="1" parent="1" source="k3TqVHNHk5mqW3imNTK8-16" target="hbDmPjfFOQGGygIN4OG3-48">
          <mxGeometry relative="1" as="geometry" />
        </mxCell>
        <mxCell id="hbDmPjfFOQGGygIN4OG3-50" value="&amp;lt;&amp;lt;extend&amp;gt;&amp;gt;" style="edgeLabel;html=1;align=center;verticalAlign=middle;resizable=0;points=[];" vertex="1" connectable="0" parent="hbDmPjfFOQGGygIN4OG3-49">
          <mxGeometry x="0.108" y="-5" relative="1" as="geometry">
            <mxPoint as="offset" />
          </mxGeometry>
        </mxCell>
        <mxCell id="k3TqVHNHk5mqW3imNTK8-16" value="&lt;div&gt;Buat&lt;/div&gt;&lt;div&gt;Pesanan&lt;br&gt;&lt;/div&gt;" style="ellipse;whiteSpace=wrap;html=1;" parent="1" vertex="1">
          <mxGeometry x="450" y="150" width="120" height="60" as="geometry" />
        </mxCell>
        <mxCell id="k3TqVHNHk5mqW3imNTK8-42" style="rounded=0;orthogonalLoop=1;jettySize=auto;html=1;exitX=1;exitY=1;exitDx=0;exitDy=0;entryX=0.5;entryY=0;entryDx=0;entryDy=0;dashed=1;" parent="1" source="k3TqVHNHk5mqW3imNTK8-25" target="k3TqVHNHk5mqW3imNTK8-6" edge="1">
          <mxGeometry relative="1" as="geometry" />
        </mxCell>
        <mxCell id="k3TqVHNHk5mqW3imNTK8-45" value="&amp;lt;&amp;lt;include&amp;gt;&amp;gt;" style="edgeLabel;html=1;align=center;verticalAlign=middle;resizable=0;points=[];" parent="k3TqVHNHk5mqW3imNTK8-42" vertex="1" connectable="0">
          <mxGeometry x="-0.7003" y="2" relative="1" as="geometry">
            <mxPoint x="6" y="-24" as="offset" />
          </mxGeometry>
        </mxCell>
        <mxCell id="k3TqVHNHk5mqW3imNTK8-25" value="&lt;div&gt;Lihat&lt;/div&gt;&lt;div&gt;Pesanan&lt;br&gt;&lt;/div&gt;" style="ellipse;whiteSpace=wrap;html=1;" parent="1" vertex="1">
          <mxGeometry x="450" y="230" width="120" height="60" as="geometry" />
        </mxCell>
        <mxCell id="k3TqVHNHk5mqW3imNTK8-43" style="rounded=0;orthogonalLoop=1;jettySize=auto;html=1;exitX=1;exitY=1;exitDx=0;exitDy=0;entryX=0.5;entryY=0;entryDx=0;entryDy=0;dashed=1;" parent="1" source="k3TqVHNHk5mqW3imNTK8-29" target="k3TqVHNHk5mqW3imNTK8-6" edge="1">
          <mxGeometry relative="1" as="geometry" />
        </mxCell>
        <mxCell id="k3TqVHNHk5mqW3imNTK8-44" value="&amp;lt;&amp;lt;include&amp;gt;&amp;gt;" style="edgeLabel;html=1;align=center;verticalAlign=middle;resizable=0;points=[];" parent="k3TqVHNHk5mqW3imNTK8-43" vertex="1" connectable="0">
          <mxGeometry x="-0.6114" y="3" relative="1" as="geometry">
            <mxPoint x="-8" y="-33" as="offset" />
          </mxGeometry>
        </mxCell>
        <mxCell id="k3TqVHNHk5mqW3imNTK8-29" value="&lt;div&gt;Batal&lt;/div&gt;&lt;div&gt;Pesanan&lt;br&gt;&lt;/div&gt;" style="ellipse;whiteSpace=wrap;html=1;" parent="1" vertex="1">
          <mxGeometry x="450" y="310" width="120" height="60" as="geometry" />
        </mxCell>
        <mxCell id="k3TqVHNHk5mqW3imNTK8-40" style="rounded=0;orthogonalLoop=1;jettySize=auto;html=1;exitX=1;exitY=1;exitDx=0;exitDy=0;entryX=0.5;entryY=0;entryDx=0;entryDy=0;dashed=1;" parent="1" source="k3TqVHNHk5mqW3imNTK8-33" target="k3TqVHNHk5mqW3imNTK8-6" edge="1">
          <mxGeometry relative="1" as="geometry" />
        </mxCell>
        <mxCell id="k3TqVHNHk5mqW3imNTK8-47" value="&amp;lt;&amp;lt;include&amp;gt;&amp;gt;" style="edgeLabel;html=1;align=center;verticalAlign=middle;resizable=0;points=[];" parent="k3TqVHNHk5mqW3imNTK8-40" vertex="1" connectable="0">
          <mxGeometry x="-0.7821" y="2" relative="1" as="geometry">
            <mxPoint x="5" y="-38" as="offset" />
          </mxGeometry>
        </mxCell>
        <mxCell id="k3TqVHNHk5mqW3imNTK8-33" value="Lihat Profile" style="ellipse;whiteSpace=wrap;html=1;" parent="1" vertex="1">
          <mxGeometry x="450" y="70" width="120" height="60" as="geometry" />
        </mxCell>
        <mxCell id="k3TqVHNHk5mqW3imNTK8-50" style="rounded=0;orthogonalLoop=1;jettySize=auto;html=1;exitX=1;exitY=1;exitDx=0;exitDy=0;entryX=0.5;entryY=0;entryDx=0;entryDy=0;dashed=1;" parent="1" source="k3TqVHNHk5mqW3imNTK8-48" target="k3TqVHNHk5mqW3imNTK8-6" edge="1">
          <mxGeometry relative="1" as="geometry" />
        </mxCell>
        <mxCell id="k3TqVHNHk5mqW3imNTK8-51" value="&amp;lt;&amp;lt;include&amp;gt;&amp;gt;" style="edgeLabel;html=1;align=center;verticalAlign=middle;resizable=0;points=[];" parent="k3TqVHNHk5mqW3imNTK8-50" vertex="1" connectable="0">
          <mxGeometry x="-0.5818" y="-2" relative="1" as="geometry">
            <mxPoint as="offset" />
          </mxGeometry>
        </mxCell>
        <mxCell id="k3TqVHNHk5mqW3imNTK8-48" value="&lt;div&gt;Pembayaran&lt;br&gt;&lt;/div&gt;" style="ellipse;whiteSpace=wrap;html=1;" parent="1" vertex="1">
          <mxGeometry x="450" y="390" width="120" height="60" as="geometry" />
        </mxCell>
        <mxCell id="k3TqVHNHk5mqW3imNTK8-49" style="rounded=0;orthogonalLoop=1;jettySize=auto;html=1;exitX=1;exitY=0.3333333333333333;exitDx=0;exitDy=0;exitPerimeter=0;entryX=0;entryY=0.5;entryDx=0;entryDy=0;" parent="1" source="k3TqVHNHk5mqW3imNTK8-1" target="k3TqVHNHk5mqW3imNTK8-48" edge="1">
          <mxGeometry relative="1" as="geometry" />
        </mxCell>
        <mxCell id="k3TqVHNHk5mqW3imNTK8-52" value="Lihat Service" style="ellipse;whiteSpace=wrap;html=1;" parent="1" vertex="1">
          <mxGeometry x="450" y="-10" width="120" height="60" as="geometry" />
        </mxCell>
        <mxCell id="k3TqVHNHk5mqW3imNTK8-56" value="Lihat Promo" style="ellipse;whiteSpace=wrap;html=1;" parent="1" vertex="1">
          <mxGeometry x="450" y="-90" width="120" height="60" as="geometry" />
        </mxCell>
        <mxCell id="k3TqVHNHk5mqW3imNTK8-61" style="rounded=0;orthogonalLoop=1;jettySize=auto;html=1;exitX=1;exitY=0.3333333333333333;exitDx=0;exitDy=0;exitPerimeter=0;entryX=0;entryY=0.5;entryDx=0;entryDy=0;" parent="1" source="k3TqVHNHk5mqW3imNTK8-60" target="k3TqVHNHk5mqW3imNTK8-56" edge="1">
          <mxGeometry relative="1" as="geometry" />
        </mxCell>
        <mxCell id="k3TqVHNHk5mqW3imNTK8-62" style="rounded=0;orthogonalLoop=1;jettySize=auto;html=1;exitX=1;exitY=0.3333333333333333;exitDx=0;exitDy=0;exitPerimeter=0;entryX=0;entryY=0.5;entryDx=0;entryDy=0;" parent="1" source="k3TqVHNHk5mqW3imNTK8-60" target="k3TqVHNHk5mqW3imNTK8-52" edge="1">
          <mxGeometry relative="1" as="geometry" />
        </mxCell>
        <mxCell id="k3TqVHNHk5mqW3imNTK8-64" style="rounded=0;orthogonalLoop=1;jettySize=auto;html=1;exitX=1;exitY=0.3333333333333333;exitDx=0;exitDy=0;exitPerimeter=0;entryX=0;entryY=0.5;entryDx=0;entryDy=0;" parent="1" source="k3TqVHNHk5mqW3imNTK8-60" target="k3TqVHNHk5mqW3imNTK8-63" edge="1">
          <mxGeometry relative="1" as="geometry" />
        </mxCell>
        <mxCell id="k3TqVHNHk5mqW3imNTK8-70" style="rounded=0;orthogonalLoop=1;jettySize=auto;html=1;exitX=1;exitY=0.3333333333333333;exitDx=0;exitDy=0;exitPerimeter=0;entryX=0;entryY=0.5;entryDx=0;entryDy=0;" parent="1" source="k3TqVHNHk5mqW3imNTK8-60" target="k3TqVHNHk5mqW3imNTK8-69" edge="1">
          <mxGeometry relative="1" as="geometry" />
        </mxCell>
        <mxCell id="k3TqVHNHk5mqW3imNTK8-60" value="Umum" style="shape=umlActor;verticalLabelPosition=bottom;verticalAlign=top;html=1;outlineConnect=0;" parent="1" vertex="1">
          <mxGeometry x="10" y="-40" width="30" height="60" as="geometry" />
        </mxCell>
        <mxCell id="k3TqVHNHk5mqW3imNTK8-63" value="Lihat Antrian" style="ellipse;whiteSpace=wrap;html=1;" parent="1" vertex="1">
          <mxGeometry x="450" y="-170" width="120" height="60" as="geometry" />
        </mxCell>
        <mxCell id="k3TqVHNHk5mqW3imNTK8-69" value="&lt;div&gt;Lihat Paket&lt;/div&gt;&lt;div&gt;Member&lt;br&gt;&lt;/div&gt;" style="ellipse;whiteSpace=wrap;html=1;" parent="1" vertex="1">
          <mxGeometry x="450" y="-250" width="120" height="60" as="geometry" />
        </mxCell>
        <mxCell id="k3TqVHNHk5mqW3imNTK8-75" style="rounded=0;orthogonalLoop=1;jettySize=auto;html=1;exitX=1;exitY=0.5;exitDx=0;exitDy=0;dashed=1;entryX=0.5;entryY=0;entryDx=0;entryDy=0;" parent="1" source="k3TqVHNHk5mqW3imNTK8-73" target="k3TqVHNHk5mqW3imNTK8-6" edge="1">
          <mxGeometry relative="1" as="geometry" />
        </mxCell>
        <mxCell id="k3TqVHNHk5mqW3imNTK8-76" value="&amp;lt;&amp;lt;include&amp;gt;&amp;gt;" style="edgeLabel;html=1;align=center;verticalAlign=middle;resizable=0;points=[];" parent="k3TqVHNHk5mqW3imNTK8-75" vertex="1" connectable="0">
          <mxGeometry x="-0.3526" y="-2" relative="1" as="geometry">
            <mxPoint x="-37" y="7" as="offset" />
          </mxGeometry>
        </mxCell>
        <mxCell id="k3TqVHNHk5mqW3imNTK8-73" value="&lt;div&gt;Subscribe Paket&lt;/div&gt;&lt;div&gt;Member&lt;/div&gt;" style="ellipse;whiteSpace=wrap;html=1;" parent="1" vertex="1">
          <mxGeometry x="460" y="550" width="120" height="60" as="geometry" />
        </mxCell>
        <mxCell id="k3TqVHNHk5mqW3imNTK8-80" style="rounded=0;orthogonalLoop=1;jettySize=auto;html=1;exitX=1;exitY=0.5;exitDx=0;exitDy=0;entryX=0.5;entryY=0;entryDx=0;entryDy=0;dashed=1;" parent="1" source="k3TqVHNHk5mqW3imNTK8-78" target="k3TqVHNHk5mqW3imNTK8-6" edge="1">
          <mxGeometry relative="1" as="geometry" />
        </mxCell>
        <mxCell id="k3TqVHNHk5mqW3imNTK8-81" value="&amp;lt;&amp;lt;include&amp;gt;&amp;gt;" style="edgeLabel;html=1;align=center;verticalAlign=middle;resizable=0;points=[];" parent="k3TqVHNHk5mqW3imNTK8-80" vertex="1" connectable="0">
          <mxGeometry x="-0.4085" y="3" relative="1" as="geometry">
            <mxPoint as="offset" />
          </mxGeometry>
        </mxCell>
        <mxCell id="k3TqVHNHk5mqW3imNTK8-78" value="&lt;div&gt;Pembayaran Paket&lt;/div&gt;&lt;div&gt;Member&lt;/div&gt;" style="ellipse;whiteSpace=wrap;html=1;" parent="1" vertex="1">
          <mxGeometry x="460" y="630" width="120" height="60" as="geometry" />
        </mxCell>
        <mxCell id="hbDmPjfFOQGGygIN4OG3-6" style="rounded=0;orthogonalLoop=1;jettySize=auto;html=1;exitX=0;exitY=0.3333333333333333;exitDx=0;exitDy=0;exitPerimeter=0;entryX=1;entryY=0.5;entryDx=0;entryDy=0;" edge="1" parent="1" source="hbDmPjfFOQGGygIN4OG3-4" target="hbDmPjfFOQGGygIN4OG3-5">
          <mxGeometry relative="1" as="geometry" />
        </mxCell>
        <mxCell id="hbDmPjfFOQGGygIN4OG3-23" style="rounded=0;orthogonalLoop=1;jettySize=auto;html=1;exitX=0;exitY=0.3333333333333333;exitDx=0;exitDy=0;exitPerimeter=0;entryX=1;entryY=0.5;entryDx=0;entryDy=0;" edge="1" parent="1" source="hbDmPjfFOQGGygIN4OG3-4" target="hbDmPjfFOQGGygIN4OG3-22">
          <mxGeometry relative="1" as="geometry" />
        </mxCell>
        <mxCell id="hbDmPjfFOQGGygIN4OG3-4" value="&lt;div&gt;Staff&lt;/div&gt;" style="shape=umlActor;verticalLabelPosition=bottom;verticalAlign=top;html=1;outlineConnect=0;" vertex="1" parent="1">
          <mxGeometry x="1450" y="240" width="30" height="60" as="geometry" />
        </mxCell>
        <mxCell id="hbDmPjfFOQGGygIN4OG3-7" style="rounded=0;orthogonalLoop=1;jettySize=auto;html=1;exitX=0;exitY=1;exitDx=0;exitDy=0;entryX=0.5;entryY=0;entryDx=0;entryDy=0;dashed=1;" edge="1" parent="1" source="hbDmPjfFOQGGygIN4OG3-5" target="k3TqVHNHk5mqW3imNTK8-6">
          <mxGeometry relative="1" as="geometry" />
        </mxCell>
        <mxCell id="hbDmPjfFOQGGygIN4OG3-8" value="&amp;lt;&amp;lt;include&amp;gt;&amp;gt;" style="edgeLabel;html=1;align=center;verticalAlign=middle;resizable=0;points=[];" vertex="1" connectable="0" parent="hbDmPjfFOQGGygIN4OG3-7">
          <mxGeometry x="-0.8906" y="3" relative="1" as="geometry">
            <mxPoint x="-52" y="4" as="offset" />
          </mxGeometry>
        </mxCell>
        <mxCell id="hbDmPjfFOQGGygIN4OG3-5" value="Lihat Job Aktif" style="ellipse;whiteSpace=wrap;html=1;" vertex="1" parent="1">
          <mxGeometry x="1090" y="635" width="120" height="60" as="geometry" />
        </mxCell>
        <mxCell id="hbDmPjfFOQGGygIN4OG3-11" style="rounded=0;orthogonalLoop=1;jettySize=auto;html=1;exitX=0;exitY=0.3333333333333333;exitDx=0;exitDy=0;exitPerimeter=0;entryX=1;entryY=0.5;entryDx=0;entryDy=0;" edge="1" parent="1" source="hbDmPjfFOQGGygIN4OG3-9" target="hbDmPjfFOQGGygIN4OG3-10">
          <mxGeometry relative="1" as="geometry" />
        </mxCell>
        <mxCell id="hbDmPjfFOQGGygIN4OG3-14" style="rounded=0;orthogonalLoop=1;jettySize=auto;html=1;exitX=0;exitY=0.3333333333333333;exitDx=0;exitDy=0;exitPerimeter=0;entryX=1;entryY=0.5;entryDx=0;entryDy=0;" edge="1" parent="1" source="hbDmPjfFOQGGygIN4OG3-9" target="hbDmPjfFOQGGygIN4OG3-13">
          <mxGeometry relative="1" as="geometry" />
        </mxCell>
        <mxCell id="hbDmPjfFOQGGygIN4OG3-17" style="rounded=0;orthogonalLoop=1;jettySize=auto;html=1;exitX=0;exitY=0.3333333333333333;exitDx=0;exitDy=0;exitPerimeter=0;entryX=1;entryY=0.5;entryDx=0;entryDy=0;" edge="1" parent="1" source="hbDmPjfFOQGGygIN4OG3-9" target="hbDmPjfFOQGGygIN4OG3-16">
          <mxGeometry relative="1" as="geometry" />
        </mxCell>
        <mxCell id="hbDmPjfFOQGGygIN4OG3-20" style="rounded=0;orthogonalLoop=1;jettySize=auto;html=1;exitX=0;exitY=0.3333333333333333;exitDx=0;exitDy=0;exitPerimeter=0;entryX=1;entryY=0.5;entryDx=0;entryDy=0;" edge="1" parent="1" source="hbDmPjfFOQGGygIN4OG3-9" target="hbDmPjfFOQGGygIN4OG3-19">
          <mxGeometry relative="1" as="geometry" />
        </mxCell>
        <mxCell id="hbDmPjfFOQGGygIN4OG3-26" style="rounded=0;orthogonalLoop=1;jettySize=auto;html=1;exitX=0;exitY=0.3333333333333333;exitDx=0;exitDy=0;exitPerimeter=0;entryX=1;entryY=0.5;entryDx=0;entryDy=0;" edge="1" parent="1" source="hbDmPjfFOQGGygIN4OG3-9" target="k3TqVHNHk5mqW3imNTK8-63">
          <mxGeometry relative="1" as="geometry" />
        </mxCell>
        <mxCell id="hbDmPjfFOQGGygIN4OG3-32" style="rounded=0;orthogonalLoop=1;jettySize=auto;html=1;exitX=0;exitY=0.3333333333333333;exitDx=0;exitDy=0;exitPerimeter=0;entryX=1;entryY=0.5;entryDx=0;entryDy=0;" edge="1" parent="1" source="hbDmPjfFOQGGygIN4OG3-9" target="hbDmPjfFOQGGygIN4OG3-31">
          <mxGeometry relative="1" as="geometry" />
        </mxCell>
        <mxCell id="hbDmPjfFOQGGygIN4OG3-36" style="rounded=0;orthogonalLoop=1;jettySize=auto;html=1;exitX=0;exitY=0.3333333333333333;exitDx=0;exitDy=0;exitPerimeter=0;entryX=1;entryY=0.5;entryDx=0;entryDy=0;" edge="1" parent="1" source="hbDmPjfFOQGGygIN4OG3-9" target="hbDmPjfFOQGGygIN4OG3-35">
          <mxGeometry relative="1" as="geometry" />
        </mxCell>
        <mxCell id="hbDmPjfFOQGGygIN4OG3-39" style="rounded=0;orthogonalLoop=1;jettySize=auto;html=1;exitX=0;exitY=0.3333333333333333;exitDx=0;exitDy=0;exitPerimeter=0;entryX=1;entryY=0.5;entryDx=0;entryDy=0;" edge="1" parent="1" source="hbDmPjfFOQGGygIN4OG3-9" target="hbDmPjfFOQGGygIN4OG3-38">
          <mxGeometry relative="1" as="geometry" />
        </mxCell>
        <mxCell id="hbDmPjfFOQGGygIN4OG3-44" style="rounded=0;orthogonalLoop=1;jettySize=auto;html=1;exitX=0;exitY=0.3333333333333333;exitDx=0;exitDy=0;exitPerimeter=0;entryX=1;entryY=0.5;entryDx=0;entryDy=0;" edge="1" parent="1" source="hbDmPjfFOQGGygIN4OG3-9" target="hbDmPjfFOQGGygIN4OG3-43">
          <mxGeometry relative="1" as="geometry" />
        </mxCell>
        <mxCell id="hbDmPjfFOQGGygIN4OG3-9" value="&lt;div&gt;Admin&lt;/div&gt;&lt;div&gt;&lt;br&gt;&lt;/div&gt;" style="shape=umlActor;verticalLabelPosition=bottom;verticalAlign=top;html=1;outlineConnect=0;" vertex="1" parent="1">
          <mxGeometry x="1450" y="-60" width="30" height="60" as="geometry" />
        </mxCell>
        <mxCell id="hbDmPjfFOQGGygIN4OG3-12" style="rounded=0;orthogonalLoop=1;jettySize=auto;html=1;exitX=0;exitY=0.5;exitDx=0;exitDy=0;entryX=0.5;entryY=0;entryDx=0;entryDy=0;dashed=1;" edge="1" parent="1" source="hbDmPjfFOQGGygIN4OG3-10" target="k3TqVHNHk5mqW3imNTK8-6">
          <mxGeometry relative="1" as="geometry" />
        </mxCell>
        <mxCell id="hbDmPjfFOQGGygIN4OG3-27" value="&amp;lt;&amp;lt;include&amp;gt;&amp;gt;" style="edgeLabel;html=1;align=center;verticalAlign=middle;resizable=0;points=[];" vertex="1" connectable="0" parent="hbDmPjfFOQGGygIN4OG3-12">
          <mxGeometry x="-0.8772" y="1" relative="1" as="geometry">
            <mxPoint y="1" as="offset" />
          </mxGeometry>
        </mxCell>
        <mxCell id="hbDmPjfFOQGGygIN4OG3-10" value="&lt;div&gt;Lihat Transaksi&lt;/div&gt;&lt;div&gt;Masuk&lt;br&gt;&lt;/div&gt;" style="ellipse;whiteSpace=wrap;html=1;" vertex="1" parent="1">
          <mxGeometry x="1090" y="-250" width="120" height="60" as="geometry" />
        </mxCell>
        <mxCell id="hbDmPjfFOQGGygIN4OG3-15" style="rounded=0;orthogonalLoop=1;jettySize=auto;html=1;exitX=0;exitY=0.5;exitDx=0;exitDy=0;entryX=0.5;entryY=0;entryDx=0;entryDy=0;dashed=1;" edge="1" parent="1" source="hbDmPjfFOQGGygIN4OG3-13" target="k3TqVHNHk5mqW3imNTK8-6">
          <mxGeometry relative="1" as="geometry" />
        </mxCell>
        <mxCell id="hbDmPjfFOQGGygIN4OG3-28" value="&amp;lt;&amp;lt;include&amp;gt;&amp;gt;" style="edgeLabel;html=1;align=center;verticalAlign=middle;resizable=0;points=[];" vertex="1" connectable="0" parent="hbDmPjfFOQGGygIN4OG3-15">
          <mxGeometry x="-0.8874" y="5" relative="1" as="geometry">
            <mxPoint y="-1" as="offset" />
          </mxGeometry>
        </mxCell>
        <mxCell id="hbDmPjfFOQGGygIN4OG3-13" value="&lt;div&gt;Lihat Transaksi&lt;/div&gt;&lt;div&gt;Keluar&lt;br&gt;&lt;/div&gt;" style="ellipse;whiteSpace=wrap;html=1;" vertex="1" parent="1">
          <mxGeometry x="1090" y="-170" width="120" height="60" as="geometry" />
        </mxCell>
        <mxCell id="hbDmPjfFOQGGygIN4OG3-18" style="rounded=0;orthogonalLoop=1;jettySize=auto;html=1;exitX=0;exitY=0.5;exitDx=0;exitDy=0;entryX=0.5;entryY=0;entryDx=0;entryDy=0;dashed=1;" edge="1" parent="1" source="hbDmPjfFOQGGygIN4OG3-16" target="k3TqVHNHk5mqW3imNTK8-6">
          <mxGeometry relative="1" as="geometry" />
        </mxCell>
        <mxCell id="hbDmPjfFOQGGygIN4OG3-29" value="&amp;lt;&amp;lt;include&amp;gt;&amp;gt;" style="edgeLabel;html=1;align=center;verticalAlign=middle;resizable=0;points=[];" vertex="1" connectable="0" parent="hbDmPjfFOQGGygIN4OG3-18">
          <mxGeometry x="-0.8734" y="2" relative="1" as="geometry">
            <mxPoint y="-1" as="offset" />
          </mxGeometry>
        </mxCell>
        <mxCell id="hbDmPjfFOQGGygIN4OG3-16" value="&lt;div&gt;Input&lt;/div&gt;&lt;div&gt;Operasional&lt;br&gt;&lt;/div&gt;" style="ellipse;whiteSpace=wrap;html=1;" vertex="1" parent="1">
          <mxGeometry x="1090" y="-50" width="120" height="60" as="geometry" />
        </mxCell>
        <mxCell id="hbDmPjfFOQGGygIN4OG3-21" style="rounded=0;orthogonalLoop=1;jettySize=auto;html=1;exitX=0;exitY=0.5;exitDx=0;exitDy=0;entryX=0.5;entryY=0;entryDx=0;entryDy=0;dashed=1;" edge="1" parent="1" source="hbDmPjfFOQGGygIN4OG3-19" target="k3TqVHNHk5mqW3imNTK8-6">
          <mxGeometry relative="1" as="geometry" />
        </mxCell>
        <mxCell id="hbDmPjfFOQGGygIN4OG3-30" value="&amp;lt;&amp;lt;include&amp;gt;&amp;gt;" style="edgeLabel;html=1;align=center;verticalAlign=middle;resizable=0;points=[];" vertex="1" connectable="0" parent="hbDmPjfFOQGGygIN4OG3-21">
          <mxGeometry x="-0.862" y="-2" relative="1" as="geometry">
            <mxPoint y="-1" as="offset" />
          </mxGeometry>
        </mxCell>
        <mxCell id="hbDmPjfFOQGGygIN4OG3-19" value="&lt;div&gt;Lihat Data&lt;/div&gt;&lt;div&gt;Member&lt;br&gt;&lt;/div&gt;" style="ellipse;whiteSpace=wrap;html=1;" vertex="1" parent="1">
          <mxGeometry x="1090" y="40" width="120" height="60" as="geometry" />
        </mxCell>
        <mxCell id="hbDmPjfFOQGGygIN4OG3-24" style="rounded=0;orthogonalLoop=1;jettySize=auto;html=1;exitX=0;exitY=0.5;exitDx=0;exitDy=0;entryX=0.5;entryY=0;entryDx=0;entryDy=0;dashed=1;" edge="1" parent="1" source="hbDmPjfFOQGGygIN4OG3-22" target="k3TqVHNHk5mqW3imNTK8-6">
          <mxGeometry relative="1" as="geometry" />
        </mxCell>
        <mxCell id="hbDmPjfFOQGGygIN4OG3-25" value="&amp;lt;&amp;lt;include&amp;gt;&amp;gt;" style="edgeLabel;html=1;align=center;verticalAlign=middle;resizable=0;points=[];" vertex="1" connectable="0" parent="hbDmPjfFOQGGygIN4OG3-24">
          <mxGeometry x="-0.2666" y="2" relative="1" as="geometry">
            <mxPoint as="offset" />
          </mxGeometry>
        </mxCell>
        <mxCell id="hbDmPjfFOQGGygIN4OG3-22" value="Lihat Job Selesai" style="ellipse;whiteSpace=wrap;html=1;" vertex="1" parent="1">
          <mxGeometry x="1090" y="550" width="120" height="60" as="geometry" />
        </mxCell>
        <mxCell id="hbDmPjfFOQGGygIN4OG3-33" style="rounded=0;orthogonalLoop=1;jettySize=auto;html=1;exitX=0;exitY=0.5;exitDx=0;exitDy=0;entryX=0.5;entryY=0;entryDx=0;entryDy=0;dashed=1;" edge="1" parent="1" source="hbDmPjfFOQGGygIN4OG3-31" target="k3TqVHNHk5mqW3imNTK8-6">
          <mxGeometry relative="1" as="geometry" />
        </mxCell>
        <mxCell id="hbDmPjfFOQGGygIN4OG3-34" value="&amp;lt;&amp;lt;include&amp;gt;&amp;gt;" style="edgeLabel;html=1;align=center;verticalAlign=middle;resizable=0;points=[];" vertex="1" connectable="0" parent="hbDmPjfFOQGGygIN4OG3-33">
          <mxGeometry x="-0.7972" y="4" relative="1" as="geometry">
            <mxPoint as="offset" />
          </mxGeometry>
        </mxCell>
        <mxCell id="hbDmPjfFOQGGygIN4OG3-31" value="&lt;div&gt;Input Pesanan &lt;br&gt;&lt;/div&gt;&lt;div&gt;Manual&lt;br&gt;&lt;/div&gt;" style="ellipse;whiteSpace=wrap;html=1;" vertex="1" parent="1">
          <mxGeometry x="1090" y="130" width="120" height="60" as="geometry" />
        </mxCell>
        <mxCell id="hbDmPjfFOQGGygIN4OG3-37" style="rounded=0;orthogonalLoop=1;jettySize=auto;html=1;exitX=0;exitY=0.5;exitDx=0;exitDy=0;entryX=0.5;entryY=0;entryDx=0;entryDy=0;dashed=1;" edge="1" parent="1" source="hbDmPjfFOQGGygIN4OG3-35" target="k3TqVHNHk5mqW3imNTK8-6">
          <mxGeometry relative="1" as="geometry" />
        </mxCell>
        <mxCell id="hbDmPjfFOQGGygIN4OG3-41" value="&amp;lt;&amp;lt;include&amp;gt;&amp;gt;" style="edgeLabel;html=1;align=center;verticalAlign=middle;resizable=0;points=[];" vertex="1" connectable="0" parent="hbDmPjfFOQGGygIN4OG3-37">
          <mxGeometry x="-0.7435" y="5" relative="1" as="geometry">
            <mxPoint y="-1" as="offset" />
          </mxGeometry>
        </mxCell>
        <mxCell id="hbDmPjfFOQGGygIN4OG3-35" value="&lt;div&gt;Input Pembayaran&lt;br&gt;&lt;/div&gt;&lt;div&gt;Masuk&lt;br&gt;&lt;/div&gt;" style="ellipse;whiteSpace=wrap;html=1;" vertex="1" parent="1">
          <mxGeometry x="1090" y="210" width="120" height="60" as="geometry" />
        </mxCell>
        <mxCell id="hbDmPjfFOQGGygIN4OG3-40" style="rounded=0;orthogonalLoop=1;jettySize=auto;html=1;exitX=0;exitY=0.5;exitDx=0;exitDy=0;entryX=0.5;entryY=0;entryDx=0;entryDy=0;dashed=1;" edge="1" parent="1" source="hbDmPjfFOQGGygIN4OG3-38" target="k3TqVHNHk5mqW3imNTK8-6">
          <mxGeometry relative="1" as="geometry" />
        </mxCell>
        <mxCell id="hbDmPjfFOQGGygIN4OG3-42" value="&amp;lt;&amp;lt;include&amp;gt;&amp;gt;" style="edgeLabel;html=1;align=center;verticalAlign=middle;resizable=0;points=[];" vertex="1" connectable="0" parent="hbDmPjfFOQGGygIN4OG3-40">
          <mxGeometry x="-0.7575" y="5" relative="1" as="geometry">
            <mxPoint as="offset" />
          </mxGeometry>
        </mxCell>
        <mxCell id="hbDmPjfFOQGGygIN4OG3-38" value="Transfer Job" style="ellipse;whiteSpace=wrap;html=1;" vertex="1" parent="1">
          <mxGeometry x="1090" y="300" width="120" height="60" as="geometry" />
        </mxCell>
        <mxCell id="hbDmPjfFOQGGygIN4OG3-46" style="rounded=0;orthogonalLoop=1;jettySize=auto;html=1;exitX=0;exitY=0.5;exitDx=0;exitDy=0;entryX=0.5;entryY=0;entryDx=0;entryDy=0;dashed=1;" edge="1" parent="1" source="hbDmPjfFOQGGygIN4OG3-43" target="k3TqVHNHk5mqW3imNTK8-6">
          <mxGeometry relative="1" as="geometry" />
        </mxCell>
        <mxCell id="hbDmPjfFOQGGygIN4OG3-47" value="&amp;lt;&amp;lt;include&amp;gt;&amp;gt;" style="edgeLabel;html=1;align=center;verticalAlign=middle;resizable=0;points=[];" vertex="1" connectable="0" parent="hbDmPjfFOQGGygIN4OG3-46">
          <mxGeometry x="-0.8972" y="-1" relative="1" as="geometry">
            <mxPoint as="offset" />
          </mxGeometry>
        </mxCell>
        <mxCell id="hbDmPjfFOQGGygIN4OG3-43" value="Pengaturan Master" style="ellipse;whiteSpace=wrap;html=1;" vertex="1" parent="1">
          <mxGeometry x="1090" y="-340" width="120" height="60" as="geometry" />
        </mxCell>
        <mxCell id="hbDmPjfFOQGGygIN4OG3-51" style="rounded=0;orthogonalLoop=1;jettySize=auto;html=1;exitX=1;exitY=0.5;exitDx=0;exitDy=0;entryX=0;entryY=0.5;entryDx=0;entryDy=0;dashed=1;" edge="1" parent="1" source="hbDmPjfFOQGGygIN4OG3-48" target="hbDmPjfFOQGGygIN4OG3-31">
          <mxGeometry relative="1" as="geometry" />
        </mxCell>
        <mxCell id="hbDmPjfFOQGGygIN4OG3-52" value="&amp;lt;&amp;lt;extend&amp;gt;&amp;gt;" style="edgeLabel;html=1;align=center;verticalAlign=middle;resizable=0;points=[];" vertex="1" connectable="0" parent="hbDmPjfFOQGGygIN4OG3-51">
          <mxGeometry x="-0.7204" y="-3" relative="1" as="geometry">
            <mxPoint as="offset" />
          </mxGeometry>
        </mxCell>
        <mxCell id="hbDmPjfFOQGGygIN4OG3-48" value="Cek Antrian" style="ellipse;whiteSpace=wrap;html=1;" vertex="1" parent="1">
          <mxGeometry x="760" y="50" width="120" height="60" as="geometry" />
        </mxCell>
        <mxCell id="hbDmPjfFOQGGygIN4OG3-54" style="rounded=0;orthogonalLoop=1;jettySize=auto;html=1;exitX=0;exitY=0.5;exitDx=0;exitDy=0;entryX=1;entryY=0.5;entryDx=0;entryDy=0;dashed=1;" edge="1" parent="1" source="hbDmPjfFOQGGygIN4OG3-53" target="k3TqVHNHk5mqW3imNTK8-48">
          <mxGeometry relative="1" as="geometry" />
        </mxCell>
        <mxCell id="hbDmPjfFOQGGygIN4OG3-57" value="&amp;lt;&amp;lt;extends&amp;gt;&amp;gt;" style="edgeLabel;html=1;align=center;verticalAlign=middle;resizable=0;points=[];" vertex="1" connectable="0" parent="hbDmPjfFOQGGygIN4OG3-54">
          <mxGeometry x="-0.6714" y="4" relative="1" as="geometry">
            <mxPoint as="offset" />
          </mxGeometry>
        </mxCell>
        <mxCell id="hbDmPjfFOQGGygIN4OG3-55" style="rounded=0;orthogonalLoop=1;jettySize=auto;html=1;exitX=1;exitY=0.5;exitDx=0;exitDy=0;entryX=0;entryY=0.5;entryDx=0;entryDy=0;dashed=1;" edge="1" parent="1" source="hbDmPjfFOQGGygIN4OG3-53" target="hbDmPjfFOQGGygIN4OG3-35">
          <mxGeometry relative="1" as="geometry" />
        </mxCell>
        <mxCell id="hbDmPjfFOQGGygIN4OG3-56" value="&amp;lt;&amp;lt;extend&amp;gt;&amp;gt;" style="edgeLabel;html=1;align=center;verticalAlign=middle;resizable=0;points=[];" vertex="1" connectable="0" parent="hbDmPjfFOQGGygIN4OG3-55">
          <mxGeometry x="-0.8065" y="-5" relative="1" as="geometry">
            <mxPoint as="offset" />
          </mxGeometry>
        </mxCell>
        <mxCell id="hbDmPjfFOQGGygIN4OG3-58" style="rounded=0;orthogonalLoop=1;jettySize=auto;html=1;exitX=0;exitY=1;exitDx=0;exitDy=0;entryX=1;entryY=0;entryDx=0;entryDy=0;dashed=1;" edge="1" parent="1" source="hbDmPjfFOQGGygIN4OG3-53" target="k3TqVHNHk5mqW3imNTK8-78">
          <mxGeometry relative="1" as="geometry" />
        </mxCell>
        <mxCell id="hbDmPjfFOQGGygIN4OG3-59" value="&amp;lt;&amp;lt;extend&amp;gt;&amp;gt;" style="edgeLabel;html=1;align=center;verticalAlign=middle;resizable=0;points=[];" vertex="1" connectable="0" parent="hbDmPjfFOQGGygIN4OG3-58">
          <mxGeometry x="-0.6877" relative="1" as="geometry">
            <mxPoint as="offset" />
          </mxGeometry>
        </mxCell>
        <mxCell id="hbDmPjfFOQGGygIN4OG3-53" value="&lt;div&gt;Cek Status &lt;br&gt;&lt;/div&gt;&lt;div&gt;Transaksi&lt;br&gt;&lt;/div&gt;" style="ellipse;whiteSpace=wrap;html=1;" vertex="1" parent="1">
          <mxGeometry x="760" y="150" width="120" height="60" as="geometry" />
        </mxCell>
      </root>
    </mxGraphModel>
  </diagram>
</mxfile>
